<svg width="24" height="24" viewBox="0 0 24 24" fill="none" xmlns="http://www.w3.org/2000/svg">
  <circle cx="12" cy="12" r="10" fill="#3B82F6"/>
  <path d="M12 2C6.48 2 2 6.48 2 12C2 17.52 6.48 22 12 22C17.52 22 22 17.52 22 12C22 6.48 17.52 2 12 2ZM13 17H11V15H13V17ZM14.93 11.17C14.7 11.57 14.36 11.88 13.96 12.13C13.57 12.38 13.38 12.71 13.3 13.07L13.19 13.68H10.93L10.8 13.08C10.69 12.55 10.58 12.06 10.27 11.63C9.96 11.19 9.58 10.83 9.13 10.53C8.69 10.24 8.39 9.84 8.23 9.34C8.07 8.84 8.17 8.3 8.53 7.71C8.89 7.12 9.46 6.72 10.23 6.52C10.99 6.31 11.81 6.38 12.68 6.71C13.55 7.05 14.22 7.61 14.7 8.39L13.18 9.39C12.91 8.95 12.53 8.63 12.04 8.44C11.55 8.24 11.05 8.21 10.54 8.35C10.03 8.5 9.75 8.72 9.71 9.01C9.67 9.3 9.73 9.56 9.89 9.79C10.05 10.02 10.25 10.24 10.5 10.44C10.75 10.64 10.99 10.84 11.23 11.03C11.47 11.23 11.69 11.44 11.88 11.67C12.08 11.91 12.25 12.2 12.4 12.54C12.55 12.88 12.63 13.3 12.63 13.8C12.63 14.3 12.55 14.72 12.4 15.07C12.25 15.42 12.08 15.71 11.88 15.94C11.69 16.17 11.47 16.38 11.23 16.58C10.99 16.78 10.75 16.98 10.5 17.18C10.25 17.38 10.05 17.6 9.89 17.83C9.73 18.06 9.67 18.32 9.71 18.61C9.75 18.9 10.03 19.12 10.54 19.27C11.05 19.41 11.55 19.38 12.04 19.18C12.53 18.99 12.91 18.67 13.18 18.23L14.7 19.23C14.22 20.01 13.55 20.57 12.68 20.91C11.81 21.24 10.99 21.31 10.23 21.1C9.46 20.9 8.89 20.5 8.53 19.91C8.17 19.32 8.07 18.78 8.23 18.28C8.39 17.78 8.69 17.38 9.13 17.09C9.58 16.79 9.96 16.43 10.27 15.99C10.58 15.56 10.69 15.07 10.8 14.54L10.93 13.94H13.19L13.3 14.55C13.38 14.91 13.57 15.24 13.96 15.49C14.36 15.74 14.7 16.05 14.93 16.45C15.16 16.85 15.2 17.25 15.05 17.66C14.9 18.07 14.59 18.41 14.12 18.68C13.65 18.95 13.07 19.09 12.38 19.09V21.09C13.38 21.09 14.21 20.91 14.88 20.55V18.55Z" fill="white"/>
  <path d="M12 6L2 12L12 18L22 12L12 6Z" fill="white"/>
</svg>